<svg width="731" height="579" viewBox="0 0 731 579" fill="none" xmlns="http://www.w3.org/2000/svg">
<path d="M609.968 210.843H420.765V21.3159H302.897V210.843H113.694V328.91H302.897V518.437H420.765V328.91H609.968V210.843Z" fill="url(#paint0_linear_113_27)"/>
<path d="M367.458 229.374H160.473C153.972 229.374 148.702 234.653 148.702 241.165V402.228C148.702 408.741 153.972 414.02 160.473 414.02H367.458C373.959 414.02 379.229 408.741 379.229 402.228V241.165C379.229 234.653 373.959 229.374 367.458 229.374Z" fill="url(#paint1_linear_113_27)"/>
<path d="M284.485 295.75C282.465 294.793 280.278 294.244 278.046 294.133C275.815 294.023 273.584 294.354 271.481 295.107C269.377 295.861 267.442 297.022 265.786 298.524C264.131 300.026 262.787 301.841 261.831 303.864C260.875 305.886 260.327 308.078 260.217 310.313C260.107 312.548 260.437 314.783 261.189 316.89C261.941 318.997 263.1 320.935 264.6 322.594C266.1 324.252 267.911 325.599 269.93 326.556C270.277 326.718 270.627 326.872 270.977 327.01C275.089 328.655 279.679 328.628 283.772 326.936C287.865 325.245 291.138 322.021 292.896 317.95C294.654 313.88 294.758 309.283 293.186 305.136C291.615 300.99 288.491 297.621 284.479 295.745L284.485 295.75ZM288.739 316.615C287.358 319.542 284.918 321.835 281.913 323.028C278.908 324.22 275.563 324.224 272.555 323.039C272.289 322.934 272.029 322.821 271.769 322.697C269.489 321.616 267.581 319.882 266.286 317.715C264.99 315.548 264.365 313.044 264.49 310.521C264.615 307.998 265.484 305.569 266.987 303.54C268.49 301.512 270.56 299.975 272.934 299.125C275.309 298.275 277.882 298.149 280.328 298.764C282.774 299.379 284.983 300.706 286.676 302.578C288.369 304.451 289.47 306.784 289.839 309.283C290.208 311.782 289.829 314.334 288.75 316.617L288.739 316.615Z" fill="#4AAFFF"/>
<path d="M265.916 317.081L262.145 319.061C260.504 315.92 259.881 312.346 260.362 308.834C260.843 305.322 262.403 302.047 264.827 299.465L267.925 302.391C266.109 304.328 264.941 306.783 264.581 309.415C264.221 312.047 264.688 314.726 265.916 317.081Z" fill="#1A598C"/>
<path d="M272.532 323.039L270.971 327.008C270.621 326.869 270.272 326.718 269.925 326.553C266.577 324.976 263.836 322.345 262.122 319.061L265.893 317.081C267.174 319.542 269.226 321.515 271.734 322.697C272.017 322.821 272.277 322.934 272.532 323.039Z" fill="#2273B5"/>
<path d="M292.586 266.554C293.554 264.53 294.113 262.335 294.232 260.093C294.351 257.852 294.026 255.609 293.277 253.494C292.528 251.379 291.369 249.433 289.866 247.767C288.364 246.102 286.548 244.751 284.522 243.791C282.497 242.831 280.302 242.281 278.064 242.174C275.826 242.066 273.589 242.402 271.481 243.163C269.373 243.924 267.436 245.095 265.781 246.608C264.127 248.121 262.787 249.947 261.838 251.981C261.674 252.325 261.523 252.676 261.385 253.029C259.708 257.155 259.711 261.774 261.394 265.897C263.076 270.021 266.303 273.32 270.385 275.089C274.466 276.857 279.076 276.954 283.228 275.359C287.38 273.764 290.743 270.603 292.597 266.554H292.586ZM271.757 270.813C268.834 269.43 266.546 266.986 265.355 263.975C264.164 260.965 264.16 257.614 265.344 254.601C265.448 254.337 265.564 254.074 265.685 253.816C266.764 251.533 268.494 249.621 270.658 248.323C272.821 247.025 275.321 246.398 277.84 246.523C280.358 246.648 282.784 247.518 284.809 249.023C286.834 250.529 288.368 252.602 289.217 254.981C290.066 257.36 290.192 259.937 289.578 262.388C288.964 264.838 287.639 267.051 285.77 268.747C283.901 270.443 281.571 271.546 279.077 271.915C276.582 272.285 274.033 271.905 271.754 270.824L271.757 270.813Z" fill="#4AAFFF"/>
<path d="M271.292 247.951L269.315 244.188C272.45 242.544 276.019 241.919 279.525 242.4C283.031 242.882 286.3 244.446 288.878 246.874L285.959 249.978C284.027 248.155 281.577 246.98 278.948 246.617C276.32 246.254 273.643 246.72 271.292 247.951Z" fill="#4AAFFF"/>
<path d="M265.344 254.589L261.385 253.023C261.523 252.67 261.674 252.32 261.838 251.975C263.411 248.621 266.037 245.876 269.315 244.159L271.292 247.922C268.836 249.209 266.867 251.265 265.685 253.776C265.564 254.062 265.448 254.326 265.344 254.589Z" fill="#2273B5"/>
<path d="M260.255 257.895C260.388 256.224 260.769 254.582 261.385 253.023L265.344 254.583C264.883 255.752 264.598 256.982 264.497 258.234L260.255 257.895Z" fill="#3788CC"/>
<path d="M312.339 242.225H306.972V328.192H312.339V242.225Z" fill="url(#paint2_linear_113_27)"/>
<path d="M326.63 242.225H321.263V328.192H326.63V242.225Z" fill="url(#paint3_linear_113_27)"/>
<path d="M340.919 242.225H335.552V328.192H340.919V242.225Z" fill="url(#paint4_linear_113_27)"/>
<path d="M355.21 242.225H349.843V328.192H355.21V242.225Z" fill="url(#paint5_linear_113_27)"/>
<path d="M271.985 339.369H240.227V338.735H271.355V326.715H271.985V339.369Z" fill="#E2F3FE"/>
<path d="M212.176 339.369H170.865V338.735H211.543V319.061H212.176V339.369Z" fill="#E2F3FE"/>
<path d="M199.289 332.155H170.865V335.95H199.289V332.155Z" fill="#4AAFFF"/>
<path d="M256.943 332.155H240.224V335.95H256.943V332.155Z" fill="#4AAFFF"/>
<path d="M327.168 360.983H164.773V365.445H327.168V360.983Z" fill="white"/>
<path d="M339.231 371.394H164.773V375.855H339.231V371.394Z" fill="white"/>
<path d="M297.906 381.801H164.773V386.262H297.906V381.801Z" fill="white"/>
<path d="M263.647 360.983H164.773V365.445H263.647V360.983Z" fill="#2273B5"/>
<path d="M271.607 371.394H164.773V375.855H271.607V371.394Z" fill="#2273B5"/>
<path d="M234.094 381.801H164.773V386.262H234.094V381.801Z" fill="#2273B5"/>
<path d="M507.102 226.786H396.191C391.085 226.786 386.946 230.932 386.946 236.047V368.073C386.946 373.188 391.085 377.334 396.191 377.334H507.102C512.208 377.334 516.347 373.188 516.347 368.073V236.047C516.347 230.932 512.208 226.786 507.102 226.786Z" fill="url(#paint6_linear_113_27)"/>
<path d="M465.503 289.228C462.549 280.956 456.436 274.198 448.508 270.44C440.58 266.683 431.487 266.234 423.229 269.193C414.971 272.152 408.224 278.276 404.473 286.217C400.722 294.159 400.274 303.267 403.228 311.54C403.477 312.24 403.751 312.929 404.04 313.604C407.464 321.484 413.81 327.723 421.74 331.003C429.669 334.284 438.561 334.349 446.538 331.186C454.515 328.022 460.952 321.877 464.49 314.048C468.029 306.22 468.392 297.32 465.503 289.228ZM442.715 323.768C436.795 325.898 430.287 325.69 424.514 323.188C418.741 320.685 414.135 316.076 411.632 310.295C411.413 309.789 411.208 309.273 411.02 308.746C409.368 304.121 409.123 299.109 410.316 294.344C411.508 289.579 414.084 285.276 417.718 281.978C421.352 278.679 425.88 276.535 430.731 275.815C435.582 275.095 440.537 275.832 444.969 277.933C449.402 280.033 453.113 283.404 455.634 287.617C458.154 291.831 459.37 296.699 459.129 301.605C458.888 306.511 457.199 311.235 454.278 315.18C451.356 319.125 447.332 322.114 442.715 323.768Z" fill="#4AAFFF"/>
<path d="M410.699 292.974L402.797 290.502C404.852 283.925 408.901 278.153 414.381 273.987C419.861 269.821 426.501 267.468 433.377 267.255L433.623 275.543C428.468 275.705 423.491 277.47 419.383 280.593C415.275 283.717 412.24 288.044 410.699 292.974Z" fill="#1A598C"/>
<path d="M411.632 310.295L404.029 313.604C403.74 312.929 403.451 312.24 403.217 311.54C400.785 304.765 400.634 297.379 402.786 290.51L410.687 292.983C409.074 298.131 409.186 303.667 411.008 308.746C411.205 309.273 411.413 309.789 411.632 310.295Z" fill="#2273B5"/>
<path d="M409.167 321.849C407.062 319.369 405.334 316.59 404.04 313.604L411.632 310.295C412.601 312.535 413.895 314.619 415.473 316.479L409.167 321.849Z" fill="#3788CC"/>
<path d="M494.175 309.475C492.551 308.706 490.792 308.264 488.998 308.175C487.204 308.087 485.409 308.353 483.718 308.959C482.026 309.565 480.471 310.499 479.139 311.707C477.808 312.915 476.727 314.374 475.959 316.001C475.191 317.627 474.75 319.39 474.661 321.187C474.573 322.984 474.839 324.781 475.443 326.476C476.048 328.17 476.981 329.729 478.187 331.062C479.393 332.396 480.849 333.478 482.473 334.248C482.762 334.378 483.034 334.503 483.314 334.613C484.564 335.108 485.881 335.415 487.222 335.522C490.416 335.784 493.601 334.915 496.221 333.065C498.841 331.216 500.729 328.504 501.557 325.402C502.385 322.301 502.099 319.006 500.75 316.094C499.401 313.182 497.074 310.836 494.175 309.467V309.475ZM497.594 326.266C496.482 328.622 494.518 330.467 492.1 331.426C489.681 332.385 486.989 332.388 484.569 331.434C484.358 331.35 484.147 331.257 483.938 331.145C482.721 330.568 481.628 329.757 480.724 328.757C479.819 327.758 479.12 326.589 478.667 325.319C478.213 324.049 478.014 322.701 478.08 321.354C478.147 320.006 478.478 318.685 479.054 317.466C479.511 316.491 480.12 315.596 480.858 314.814C482.533 313.034 484.787 311.911 487.214 311.648C489.642 311.384 492.084 311.996 494.101 313.375C496.118 314.753 497.578 316.808 498.219 319.168C498.859 321.529 498.637 324.04 497.594 326.252V326.266Z" fill="#4AAFFF"/>
<path d="M479.239 326.62L476.208 328.212C474.889 325.686 474.387 322.811 474.774 319.987C475.16 317.163 476.415 314.529 478.364 312.452L480.858 314.805C480.12 315.588 479.511 316.483 479.054 317.457C478.374 318.894 478.037 320.47 478.069 322.06C478.101 323.65 478.502 325.211 479.239 326.62Z" fill="#1A598C"/>
<path d="M484.569 331.411L483.314 334.595C483.025 334.485 482.751 334.361 482.473 334.231C479.785 332.96 477.585 330.845 476.208 328.206L479.239 326.614C480.272 328.592 481.922 330.178 483.938 331.13C484.147 331.234 484.372 331.327 484.569 331.411Z" fill="#2273B5"/>
<path d="M500.689 285.983C502.241 282.698 502.426 278.93 501.204 275.508C499.982 272.086 497.453 269.291 494.174 267.737C490.894 266.183 487.133 265.997 483.717 267.221C480.301 268.445 477.51 270.979 475.959 274.264C475.829 274.553 475.705 274.822 475.595 275.106C475.1 276.357 474.794 277.675 474.687 279.017C474.425 282.217 475.293 285.407 477.14 288.032C478.986 290.656 481.693 292.548 484.79 293.377C487.886 294.207 491.175 293.92 494.082 292.569C496.989 291.218 499.331 288.887 500.698 285.983H500.689ZM483.927 289.41C481.573 288.298 479.73 286.33 478.772 283.906C477.814 281.483 477.812 278.784 478.768 276.36C478.852 276.148 478.944 275.937 479.043 275.728C479.91 273.892 481.302 272.354 483.043 271.309C484.783 270.265 486.793 269.761 488.819 269.861C490.845 269.961 492.796 270.661 494.425 271.872C496.055 273.083 497.289 274.75 497.972 276.664C498.655 278.577 498.756 280.65 498.263 282.621C497.77 284.592 496.704 286.373 495.201 287.737C493.697 289.102 491.824 289.989 489.817 290.287C487.81 290.584 485.761 290.279 483.927 289.41Z" fill="#4AAFFF"/>
<path d="M483.563 271.024L481.973 267.984C484.495 266.662 487.365 266.159 490.185 266.547C493.005 266.934 495.634 268.193 497.707 270.147L495.357 272.642C493.803 271.178 491.832 270.236 489.718 269.946C487.604 269.656 485.453 270.033 483.563 271.024Z" fill="#4AAFFF"/>
<path d="M478.78 276.36L475.601 275.106C475.711 274.817 475.835 274.542 475.965 274.264C477.232 271.569 479.344 269.364 481.979 267.984L483.569 271.024C481.593 272.057 480.01 273.709 479.06 275.728C478.956 275.937 478.864 276.148 478.78 276.36Z" fill="#2273B5"/>
<path d="M474.687 279.017C474.794 277.676 475.1 276.357 475.595 275.106L478.774 276.36C478.404 277.299 478.174 278.288 478.092 279.295L474.687 279.017Z" fill="#3788CC"/>
<path d="M484.121 344.543H458.578V344.033H483.615V334.367H484.121V344.543Z" fill="#E2F3FE"/>
<path d="M436.019 344.543H402.797V344.033H435.51V328.212H436.019V344.543Z" fill="#E2F3FE"/>
<path d="M425.658 338.741H402.797V341.792H425.658V338.741Z" fill="#4AAFFF"/>
<path d="M472.023 338.741H458.578V341.792H472.023V338.741Z" fill="#4AAFFF"/>
<path d="M408.56 239.706H397.619V242.048H408.56V239.706Z" fill="#4AAFFF"/>
<path d="M460.2 248.524H443.226V250.866H460.2V248.524Z" fill="#4AAFFF"/>
<path d="M431.643 248.524H421.279V250.866H431.643V248.524Z" fill="#4AAFFF"/>
<path d="M418.149 248.524H397.619V250.866H418.149V248.524Z" fill="#4AAFFF"/>
<path d="M428.1 239.706H411.89V242.048H428.1V239.706Z" fill="#4AAFFF"/>
<path d="M439.339 248.524H434.886V250.866H439.339V248.524Z" fill="#4AAFFF"/>
<path d="M460.2 239.836H448.09V242.178H460.2V239.836Z" fill="#4AAFFF"/>
<path d="M474.846 248.524H464.52V250.866H474.846V248.524Z" fill="#4AAFFF"/>
<path d="M444.923 239.836H432.085V242.178H444.923V239.836Z" fill="#4AAFFF"/>
<path d="M544.043 96.6379H246.353C236.895 96.6379 229.227 104.319 229.227 113.794V202.937C229.227 212.411 236.895 220.092 246.353 220.092H544.043C553.501 220.092 561.169 212.411 561.169 202.937V113.794C561.169 104.319 553.501 96.6379 544.043 96.6379Z" fill="url(#paint7_linear_113_27)"/>
<path d="M532.861 132.079H492.294V136.158H532.861V132.079Z" fill="#B8D6FF"/>
<path d="M538.922 144.701H492.294V148.777H538.922V144.701Z" fill="#B8D6FF"/>
<path d="M516.347 157.254H492.224V161.333H516.347V157.254Z" fill="#B8D6FF"/>
<path d="M529.393 169.803H492.224V173.882H529.393V169.803Z" fill="#B8D6FF"/>
<path d="M308.7 208.753H272.543V213.214H308.7V208.753Z" fill="#D6D6D6"/>
<path d="M317.472 200.806H263.769V205.267H317.472V200.806Z" fill="#D6D6D6"/>
<path d="M290.704 148.904C295.86 148.904 300.039 144.718 300.039 139.553C300.039 134.389 295.86 130.203 290.704 130.203C285.549 130.203 281.369 134.389 281.369 139.553C281.369 144.718 285.549 148.904 290.704 148.904Z" fill="url(#paint8_linear_113_27)"/>
<path d="M307.544 170.041V187.828C302.227 190.236 296.458 191.481 290.622 191.481C284.786 191.481 279.017 190.236 273.699 187.828V170.041C273.67 167.796 274.086 165.568 274.923 163.485C275.76 161.403 277.002 159.508 278.577 157.91C280.151 156.312 282.026 155.044 284.094 154.178C286.162 153.312 288.381 152.866 290.622 152.866C292.863 152.866 295.082 153.312 297.149 154.178C299.217 155.044 301.093 156.312 302.667 157.91C304.241 159.508 305.483 161.403 306.32 163.485C307.158 165.568 307.574 167.796 307.544 170.041Z" fill="url(#paint9_linear_113_27)"/>
<path d="M436.013 125.721H349.048V131.337H436.013V125.721Z" fill="white"/>
<path d="M479.15 125.721H445.353V131.337H479.15V125.721Z" fill="white"/>
<path d="M389.885 112.934H349.048V118.55H389.885V112.934Z" fill="white"/>
<path d="M290.62 192.593C284.624 192.605 278.695 191.322 273.24 188.829C265.889 185.472 259.657 180.071 255.282 173.269C250.908 166.466 248.576 158.548 248.564 150.456C248.564 127.224 267.431 108.325 290.62 108.325C313.81 108.325 332.679 127.224 332.679 150.456C332.667 158.548 330.336 166.466 325.961 173.269C321.587 180.071 315.354 185.472 308.004 188.829C302.547 191.322 296.618 192.606 290.62 192.593ZM290.62 110.557C268.656 110.557 250.784 128.46 250.784 150.465C250.796 158.13 253.005 165.63 257.148 172.074C261.292 178.518 267.196 183.634 274.159 186.814C279.332 189.157 284.944 190.369 290.622 190.369C296.299 190.369 301.912 189.157 307.085 186.814C314.047 183.634 319.951 178.518 324.095 172.074C328.239 165.63 330.448 158.13 330.46 150.465C330.46 128.46 312.588 110.557 290.62 110.557Z" fill="url(#paint10_linear_113_27)"/>
<path d="M357.447 141.977H355.227V195.913H357.447V141.977Z" fill="#C9E0FF"/>
<path d="M367.649 141.977H365.429V195.913H367.649V141.977Z" fill="#C9E0FF"/>
<path d="M377.853 141.977H375.634V195.913H377.853V141.977Z" fill="#C9E0FF"/>
<path d="M388.055 141.977H385.836V195.913H388.055V141.977Z" fill="#C9E0FF"/>
<path d="M398.257 141.977H396.038V195.913H398.257V141.977Z" fill="#C9E0FF"/>
<path d="M408.459 141.977H406.24V195.913H408.459V141.977Z" fill="#C9E0FF"/>
<path d="M418.664 141.977H416.444V195.913H418.664V141.977Z" fill="#C9E0FF"/>
<path d="M428.866 141.977H426.646V195.913H428.866V141.977Z" fill="#C9E0FF"/>
<path d="M439.068 141.977H436.848V195.913H439.068V141.977Z" fill="#C9E0FF"/>
<path d="M449.272 141.977H447.053V195.913H449.272V141.977Z" fill="#C9E0FF"/>
<path d="M459.474 141.977H457.255V195.913H459.474V141.977Z" fill="#C9E0FF"/>
<path d="M469.676 141.977H467.457V195.913H469.676V141.977Z" fill="#C9E0FF"/>
<path d="M357.447 158.102H355.227V195.913H357.447V158.102Z" fill="#FF6559"/>
<path d="M367.649 171.17H365.429V195.913H367.649V171.17Z" fill="#FF6559"/>
<path d="M377.853 149.761H375.634V195.913H377.853V149.761Z" fill="#FF6559"/>
<path d="M388.055 182.475H385.836V195.913H388.055V182.475Z" fill="#FF6559"/>
<path d="M398.257 168.946H396.038V195.913H398.257V168.946Z" fill="#FF6559"/>
<path d="M408.459 158.846H406.24V195.916H408.459V158.846Z" fill="#FF6559"/>
<path d="M418.664 172.004H416.444V195.913H418.664V172.004Z" fill="#FF6559"/>
<path d="M428.866 155.415H426.646V195.913H428.866V155.415Z" fill="#FF6559"/>
<path d="M439.068 173.671H436.848V195.913H439.068V173.671Z" fill="#FF6559"/>
<path d="M449.272 160.328H447.053V195.913H449.272V160.328Z" fill="#FF6559"/>
<path d="M459.474 178.121H457.255V195.913H459.474V178.121Z" fill="#FF6559"/>
<path d="M469.676 160.328H467.457V195.913H469.676V160.328Z" fill="#FF6559"/>
<path d="M572.883 69.3932H544.497V71.3878H572.883V69.3932Z" fill="#B8D6FF"/>
<path d="M572.883 73.1479H544.497V81.529H572.883V73.1479Z" fill="#B8D6FF"/>
<path d="M541.774 76.3383H525.029V77.5918H541.774V76.3383Z" fill="#B8D6FF"/>
<path d="M541.774 78.1389H525.029V81.529H541.774V78.1389Z" fill="#B8D6FF"/>
<path d="M573.51 69.3932H572.258V92.8716H573.51V69.3932Z" fill="#B8D6FF"/>
<path d="M452.243 77.007L438.166 62.9055C437.497 62.2346 437.121 61.325 437.121 60.3767C437.121 59.4284 437.497 58.5189 438.166 57.8479L463.113 32.8583C463.783 32.1881 464.691 31.8116 465.637 31.8116C466.584 31.8116 467.492 32.1881 468.162 32.8583L482.239 46.9598C482.908 47.6308 483.284 48.5403 483.284 49.4886C483.284 50.4369 482.908 51.3465 482.239 52.0174L457.292 77.007C456.622 77.6772 455.714 78.0537 454.768 78.0537C453.821 78.0537 452.913 77.6772 452.243 77.007ZM467.61 33.4199C467.089 32.9 466.384 32.608 465.649 32.608C464.914 32.608 464.209 32.9 463.688 33.4199L438.741 58.4096C438.222 58.9311 437.931 59.6374 437.931 60.3738C437.931 61.1102 438.222 61.8166 438.741 62.3381L452.807 76.428C453.327 76.948 454.033 77.2399 454.768 77.2399C455.503 77.2399 456.208 76.948 456.729 76.428L481.676 51.4384C482.195 50.9169 482.486 50.2105 482.486 49.4741C482.486 48.7377 482.195 48.0314 481.676 47.5099L467.61 33.4199Z" fill="#4AAFFF"/>
<path d="M444.703 62.0978C444.146 61.5395 443.766 60.8281 443.612 60.0537C443.458 59.2793 443.537 58.4765 443.839 57.747C444.14 57.0175 444.651 56.3939 445.307 55.9552C445.962 55.5165 446.733 55.2823 447.521 55.2823C448.309 55.2823 449.08 55.5165 449.735 55.9552C450.391 56.3939 450.901 57.0175 451.203 57.747C451.505 58.4765 451.584 59.2793 451.43 60.0537C451.276 60.8281 450.896 61.5395 450.339 62.0978C449.591 62.8449 448.577 63.2644 447.521 63.2644C446.465 63.2644 445.451 62.8449 444.703 62.0978ZM449.775 57.0141C449.33 56.5706 448.763 56.2691 448.147 56.1476C447.531 56.0262 446.893 56.0903 446.313 56.3319C445.733 56.5734 445.238 56.9816 444.889 57.5049C444.541 58.0282 444.355 58.6432 444.355 59.2722C444.355 59.9013 444.541 60.5163 444.889 61.0396C445.238 61.5629 445.733 61.9711 446.313 62.2126C446.893 62.4542 447.531 62.5183 448.147 62.3969C448.763 62.2754 449.33 61.9739 449.775 61.5303C450.072 61.2344 450.308 60.8826 450.469 60.495C450.63 60.1075 450.713 59.6919 450.713 59.2722C450.713 58.8525 450.63 58.437 450.469 58.0495C450.308 57.6619 450.072 57.3101 449.775 57.0141Z" fill="#4AAFFF"/>
<path d="M453.211 53.572C452.654 53.0137 452.274 52.3024 452.121 51.5279C451.967 50.7535 452.046 49.9508 452.347 49.2212C452.649 48.4917 453.16 47.8682 453.815 47.4295C454.47 46.9908 455.241 46.7566 456.029 46.7566C456.818 46.7566 457.588 46.9908 458.243 47.4295C458.899 47.8682 459.41 48.4917 459.711 49.2212C460.013 49.9508 460.092 50.7535 459.938 51.5279C459.784 52.3024 459.405 53.0137 458.847 53.572C458.099 54.3198 457.086 54.7398 456.029 54.7398C454.973 54.7398 453.959 54.3198 453.211 53.572ZM458.283 48.4913C457.838 48.0477 457.272 47.7462 456.656 47.6248C456.039 47.5033 455.401 47.5674 454.821 47.809C454.241 48.0505 453.746 48.4587 453.397 48.982C453.049 49.5053 452.863 50.1203 452.863 50.7494C452.863 51.3785 453.049 51.9934 453.397 52.5167C453.746 53.04 454.241 53.4482 454.821 53.6898C455.401 53.9313 456.039 53.9954 456.656 53.874C457.272 53.7526 457.838 53.451 458.283 53.0075C458.581 52.7115 458.816 52.3597 458.977 51.9722C459.138 51.5846 459.221 51.1691 459.221 50.7494C459.221 50.3297 459.138 49.9141 458.977 49.5266C458.816 49.1391 458.581 48.7872 458.283 48.4913Z" fill="#4AAFFF"/>
<path d="M461.72 45.0491C461.162 44.4908 460.783 43.7794 460.629 43.005C460.475 42.2306 460.554 41.4278 460.855 40.6983C461.157 39.9688 461.668 39.3452 462.323 38.9065C462.979 38.4678 463.749 38.2336 464.538 38.2336C465.326 38.2336 466.096 38.4678 466.752 38.9065C467.407 39.3452 467.918 39.9688 468.22 40.6983C468.521 41.4278 468.6 42.2306 468.446 43.005C468.292 43.7794 467.913 44.4908 467.355 45.0491C466.608 45.7969 465.594 46.2169 464.538 46.2169C463.481 46.2169 462.468 45.7969 461.72 45.0491ZM466.792 39.9683C466.347 39.5248 465.78 39.2232 465.164 39.1018C464.548 38.9804 463.909 39.0445 463.33 39.286C462.75 39.5276 462.254 39.9358 461.906 40.4591C461.557 40.9824 461.371 41.5974 461.371 42.2264C461.371 42.8555 461.557 43.4705 461.906 43.9938C462.254 44.5171 462.75 44.9253 463.33 45.1668C463.909 45.4084 464.548 45.4725 465.164 45.351C465.78 45.2296 466.347 44.9281 466.792 44.4845C467.089 44.1886 467.325 43.8367 467.486 43.4492C467.646 43.0617 467.729 42.6461 467.729 42.2264C467.729 41.8067 467.646 41.3912 467.486 41.0036C467.325 40.6161 467.089 40.2643 466.792 39.9683Z" fill="#4AAFFF"/>
<path d="M461.665 62.0427C461.107 61.4844 460.728 60.7731 460.574 59.9986C460.42 59.2242 460.499 58.4215 460.801 57.6919C461.102 56.9624 461.613 56.3389 462.268 55.9002C462.924 55.4615 463.694 55.2273 464.483 55.2273C465.271 55.2273 466.042 55.4615 466.697 55.9002C467.352 56.3389 467.863 56.9624 468.165 57.6919C468.466 58.4215 468.545 59.2242 468.391 59.9986C468.238 60.7731 467.858 61.4844 467.301 62.0427C466.552 62.7898 465.539 63.2093 464.483 63.2093C463.426 63.2093 462.413 62.7898 461.665 62.0427ZM466.743 56.9591C466.297 56.5159 465.731 56.2148 465.115 56.0937C464.499 55.9726 463.861 56.037 463.281 56.2786C462.701 56.5203 462.206 56.9285 461.858 57.4517C461.509 57.9749 461.324 58.5897 461.324 59.2186C461.324 59.8475 461.509 60.4623 461.858 60.9856C462.206 61.5088 462.701 61.9169 463.281 62.1586C463.861 62.4003 464.499 62.4646 465.115 62.3435C465.731 62.2225 466.297 61.9213 466.743 61.4782C467.04 61.1822 467.276 60.8302 467.438 60.4424C467.599 60.0546 467.682 59.6387 467.682 59.2186C467.682 58.7986 467.599 58.3827 467.438 57.9949C467.276 57.6071 467.04 57.2551 466.743 56.9591Z" fill="#4AAFFF"/>
<path d="M453.159 70.5657C452.602 70.0074 452.222 69.296 452.069 68.5216C451.915 67.7472 451.994 66.9444 452.295 66.2149C452.597 65.4854 453.108 64.8618 453.763 64.4231C454.418 63.9844 455.189 63.7502 455.977 63.7502C456.766 63.7502 457.536 63.9844 458.191 64.4231C458.847 64.8618 459.358 65.4854 459.659 66.2149C459.961 66.9444 460.04 67.7472 459.886 68.5216C459.732 69.296 459.352 70.0074 458.795 70.5657C458.047 71.3135 457.034 71.7335 455.977 71.7335C454.921 71.7335 453.907 71.3135 453.159 70.5657ZM458.232 65.4849C457.786 65.0414 457.22 64.7398 456.604 64.6184C455.987 64.497 455.349 64.5611 454.769 64.8027C454.189 65.0442 453.694 65.4524 453.345 65.9757C452.997 66.499 452.811 67.114 452.811 67.743C452.811 68.3721 452.997 68.9871 453.345 69.5104C453.694 70.0337 454.189 70.4419 454.769 70.6834C455.349 70.925 455.987 70.9891 456.604 70.8676C457.22 70.7462 457.786 70.4447 458.232 70.0011C458.528 69.705 458.764 69.353 458.925 68.9654C459.085 68.5777 459.168 68.1621 459.167 67.7424C459.167 67.3227 459.084 66.9072 458.923 66.5198C458.762 66.1324 458.526 65.7807 458.229 65.4849H458.232Z" fill="#4AAFFF"/>
<path d="M470.173 53.5199C469.615 52.9613 469.235 52.2494 469.081 51.4744C468.927 50.6994 469.006 49.896 469.307 49.1658C469.609 48.4356 470.12 47.8115 470.776 47.3724C471.432 46.9333 472.203 46.699 472.992 46.699C473.781 46.699 474.552 46.9333 475.208 47.3724C475.864 47.8115 476.376 48.4356 476.677 49.1658C476.979 49.896 477.058 50.6994 476.904 51.4744C476.75 52.2494 476.37 52.9613 475.812 53.5199C475.063 54.2665 474.049 54.6856 472.992 54.6856C471.936 54.6856 470.922 54.2665 470.173 53.5199ZM475.248 48.4363C474.803 47.9927 474.236 47.6912 473.62 47.5698C473.004 47.4484 472.366 47.5125 471.786 47.754C471.206 47.9956 470.71 48.4038 470.362 48.9271C470.013 49.4504 469.827 50.0653 469.827 50.6944C469.827 51.3235 470.013 51.9385 470.362 52.4618C470.71 52.9851 471.206 53.3932 471.786 53.6348C472.366 53.8763 473.004 53.9404 473.62 53.819C474.236 53.6976 474.803 53.3961 475.248 52.9525C475.844 52.3525 476.178 51.5407 476.178 50.6944C476.178 49.8481 475.844 49.0363 475.248 48.4363Z" fill="#4AAFFF"/>
<path d="M213.603 87.539C213.416 87.539 213.233 87.4781 213.083 87.3653L205.945 82.0877L203.991 83.9232L179.064 57.2631L178.382 57.9L176.261 55.6303L179.472 52.6311L172.449 45.1041L170.689 46.7543L168.568 44.4846L174.559 38.877L176.68 41.1466L174.92 42.7968L181.943 50.3093L185.145 47.3043L187.266 49.574L186.584 50.2138L211.511 76.8738L209.554 78.7093L214.343 86.187C214.431 86.3188 214.482 86.4721 214.489 86.6305C214.496 86.7889 214.46 86.9463 214.385 87.0856C214.309 87.2249 214.197 87.3408 214.06 87.4207C213.923 87.5006 213.767 87.5416 213.609 87.539H213.603ZM205.864 80.6692L212.8 85.7933L208.141 78.5327L209.965 76.8217L185.038 50.1646L185.72 49.5219L185.09 48.8473L181.888 51.8523L173.374 42.7476L175.137 41.109L174.504 40.4316L170.102 44.5627L170.735 45.2373L172.492 43.5871L181.004 52.689L177.801 55.694L178.432 56.3685L179.116 55.7287L204.037 82.3801L205.864 80.6692Z" fill="#4AAFFF"/>
<path d="M267.329 486.815H244.885C243.682 486.814 242.528 486.335 241.678 485.482C240.827 484.63 240.349 483.475 240.348 482.269V449.79H271.864V482.269C271.863 483.474 271.385 484.629 270.535 485.481C269.685 486.334 268.532 486.813 267.329 486.815ZM241.111 450.552V482.269C241.112 483.273 241.51 484.235 242.218 484.944C242.926 485.654 243.887 486.052 244.888 486.053H267.329C268.331 486.052 269.291 485.653 269.999 484.943C270.707 484.234 271.105 483.272 271.107 482.269V450.552H241.111Z" fill="#4AAFFF"/>
<path d="M274.072 450.552H238.14V443.96H274.072V450.552ZM238.9 449.79H273.309V444.721H238.9V449.79Z" fill="#4AAFFF"/>
<path d="M271.864 481.213H240.348V456.964H271.864V481.213ZM241.108 480.451H271.104V457.728H241.108V480.451Z" fill="#4AAFFF"/>
<path d="M177.218 194.767H172.556C169.401 194.763 166.375 193.506 164.144 191.271C161.912 189.036 160.657 186.006 160.652 182.845V162.528C160.656 159.367 161.911 156.337 164.143 154.102C166.375 151.867 169.4 150.61 172.556 150.607H177.218C180.373 150.61 183.399 151.867 185.63 154.102C187.861 156.337 189.116 159.367 189.119 162.528V182.845C189.115 186.006 187.86 189.036 185.629 191.271C183.398 193.506 180.373 194.763 177.218 194.767ZM172.556 151.209C169.562 151.215 166.692 152.41 164.576 154.531C162.459 156.653 161.268 159.529 161.265 162.528V182.845C161.268 185.847 162.461 188.724 164.58 190.846C166.699 192.968 169.571 194.162 172.568 194.165H177.218C180.214 194.162 183.087 192.968 185.206 190.846C187.325 188.724 188.517 185.847 188.521 182.845V162.528C188.517 159.527 187.325 156.649 185.206 154.527C183.087 152.405 180.214 151.212 177.218 151.209H172.556Z" fill="#4AAFFF"/>
<path d="M180.683 151.209H169.091V143.126H180.683V151.209ZM169.701 150.607H180.105V143.725H169.701V150.607Z" fill="#4AAFFF"/>
<path d="M189.119 183.143H160.652V162.227H189.119V183.143ZM161.265 182.544H188.532V162.829H161.265V182.544Z" fill="#4AAFFF"/>
<path d="M404.196 347.142C404.196 347.142 407.569 346.083 407.841 344.079C408.072 342.374 409.601 340.342 410.069 339.714C410.696 338.874 411.664 335.58 412.728 336.364C413.791 337.149 411.393 341.865 411.089 342.962C410.786 344.059 415.398 341.975 416.54 342.261C417.681 342.548 420.684 350.399 417.352 351.459C414.02 352.518 409.763 351.459 409.213 351.748C408.433 352.086 407.633 352.376 406.818 352.617L404.196 347.142Z" fill="#EEA886"/>
<path d="M415.704 342.325C415.704 342.325 426.109 339.763 426.958 340.174C427.808 340.585 427.9 341.161 426.935 341.439C425.97 341.717 416.944 344.207 416.944 344.207C416.944 344.207 429.782 343.251 430.527 343.437C430.973 343.547 431.241 344.644 430.739 344.844C430.236 345.043 417.569 346.717 417.569 346.717C417.569 346.717 429.556 345.848 430.143 346.193C430.279 346.289 430.382 346.424 430.44 346.581C430.498 346.737 430.507 346.907 430.467 347.069C430.427 347.23 430.339 347.376 430.214 347.487C430.09 347.598 429.935 347.668 429.77 347.689C428.883 347.817 417.803 349.256 417.803 349.256C417.803 349.256 426.568 349.172 426.895 349.757C427.094 350.115 427.372 351.053 425.109 351.004C422.846 350.955 417.496 351.401 417.496 351.401L415.704 342.325Z" fill="#EEA886"/>
<path d="M409.788 355.674C409.788 355.674 380.648 362.144 374.839 360.717C372.157 360.057 368.626 356.348 365.27 351.992C364.166 350.544 363.08 349.05 362.048 347.559C357.932 341.604 354.707 335.898 354.707 335.898C354.707 335.898 342.54 321.614 352.303 315.248C352.303 315.248 355.846 313.916 359.1 317.411C362.354 320.905 366.178 328.215 367.03 330.076C367.883 331.938 379.836 349.207 380.455 349.594C381.073 349.982 386.295 348.607 390.483 348.26C397.309 347.681 407.534 344.207 407.534 344.207L409.788 355.674Z" fill="#DBDFF0"/>
<path d="M367.883 530.297C367.883 530.297 372.388 535.039 376.963 536.032C381.538 537.025 384.74 538.293 384.766 541.012C384.793 543.73 371.599 545.525 366.363 542.783C358.56 538.69 357.756 539.923 356.889 537.879C356.022 535.835 357.93 530.352 357.875 529.71C357.811 528.916 367.883 530.297 367.883 530.297Z" fill="#202338"/>
<path d="M367.377 528.031C367.377 528.031 367.955 530.251 367.883 530.297C367.811 530.344 357.574 531.493 357.883 529.718C358.132 528.271 358.49 526.705 358.49 526.705L367.377 528.031Z" fill="#2F6B8C"/>
<path d="M316.975 531.522C316.975 531.522 320.289 536.154 324.726 537.205C329.098 538.256 331.931 540.253 332.144 542.899C332.358 545.545 321.836 549.005 314.443 544.361C309.585 541.31 307.773 541.484 306.793 539.544C305.813 537.604 307.307 532.17 307.209 531.542C307.088 530.775 316.975 531.522 316.975 531.522Z" fill="#202338"/>
<path d="M316.839 529.252C316.839 529.252 317.058 531.484 316.975 531.534C316.891 531.583 307.148 533.311 307.209 531.554C307.291 530.488 307.497 529.436 307.825 528.419L316.839 529.252Z" fill="#2F6B8C"/>
<path d="M357.065 394.658C357.065 394.658 361.799 429.108 363.733 440.743C365.993 454.35 366.759 465.606 367.389 472.652C368.183 481.514 369.235 526.87 369.79 529.461C370.345 532.052 356.002 530.706 356.002 530.706C356.002 530.706 348.488 471.578 346.127 462.14C343.93 453.351 337.526 415.392 335.52 417.789C333.514 420.186 327.37 463.191 325.885 470.125C324.399 477.058 320.417 531.62 320.417 531.62C320.417 531.62 306.888 533.792 304.163 531.62C304.163 531.62 306.299 482.964 307.244 469.957C307.605 465.006 304.117 410.67 312.478 388.758C316.897 377.19 357.065 394.658 357.065 394.658Z" fill="#2F4563"/>
<path d="M343.179 312.055C343.179 312.055 355.704 314.66 357.19 315.969C358.802 317.373 361.649 331.116 361.814 334.943C361.978 338.77 360.302 354.762 358.69 360.708C357.077 366.655 357.372 395.993 358.401 404.243C358.401 404.243 333.182 411.42 308.385 408.186C308.385 408.186 312.541 377.331 311.565 369.17C310.293 358.719 307.229 334.636 307.229 334.636C307.229 334.636 309.426 317.845 311.634 315.986C313.842 314.128 329.055 312.049 329.055 312.049L343.179 312.055Z" fill="#BCC0CF"/>
<path d="M338 273.259C338 273.259 353.068 267.675 352.126 287.734C351.184 307.793 347.652 309.829 337.743 307.029C327.833 304.23 327 291.57 325.708 285.479C324.416 279.388 333.072 274.136 338 273.259Z" fill="#EEA886"/>
<path d="M345.15 314.771C345.15 314.771 342.049 316.826 330.292 311.638C330.292 311.638 330.624 303.564 328.318 296.022C326.012 288.481 344.095 306.077 344.095 306.077C343.904 306.21 343.869 306.966 343.976 308.016C344.091 309.068 344.285 310.109 344.554 311.131C345.216 313.653 345.15 312.57 345.15 314.771Z" fill="#EEA886"/>
<path d="M327.804 295.423C327.804 295.423 327.76 290.067 329.986 289.572C332.211 289.077 333.355 292.178 333.355 292.178L335.144 292.082C335.144 292.082 333.543 286.651 335.665 285.406C337.786 284.162 350.47 285.256 352.063 283.426C353.655 281.597 351.346 270.743 347.884 269.678C344.421 268.613 334.971 266.45 328.965 271.806C328.965 271.806 323.743 271.904 323.535 276.166C323.327 280.427 325.997 292.519 327.804 295.423Z" fill="#E2D2CA"/>
<path d="M344.557 311.131C332.879 309.166 331.133 302.513 331.107 302.409C335.647 308.274 343.976 308.016 343.976 308.016C344.092 309.068 344.286 310.109 344.557 311.131Z" fill="#A77860"/>
<path d="M344.043 317.405C344.043 317.405 346.17 320.549 347.453 328.614C348.736 336.68 348.52 350.579 348.52 350.579L345.56 350.941C345.56 350.941 341.086 322.596 341.855 317.648L344.043 317.405Z" fill="#434343"/>
<path d="M332.503 287.297C331.835 285.531 328.078 285.754 328.457 288.556C328.835 291.359 331.948 295.672 333.196 294.864C334.445 294.057 333.419 289.734 332.503 287.297Z" fill="#EEA886"/>
<path d="M357.19 315.969C357.19 315.969 364.467 325.386 361.831 350.066C357.065 394.649 369.545 466.243 369.545 466.243L356.672 470.278C356.672 470.278 344.372 378.767 347.505 345.556C348.93 330.424 353.167 325.386 346.485 312.779C346.485 312.779 352.831 313.12 357.19 315.969Z" fill="#DBDFF0"/>
<path d="M325.578 312.57C325.578 312.57 345.953 333.186 347.543 348.813C349.132 364.44 351.736 470.278 351.736 470.278L303.232 467.45C303.232 467.45 307.692 411.576 308.778 404.591C309.865 397.605 312.119 357.472 307.209 338.851C304.571 328.849 307.709 316.157 313.735 314.77C319.761 313.384 325.578 312.57 325.578 312.57Z" fill="#DBDFF0"/>
<path d="M318.694 315.242C318.694 315.242 326.541 317.405 322.223 331.831C318.842 343.121 318.385 345.556 318.385 345.556L300.276 341.031C300.276 341.031 305.585 316.209 314.249 314.875C314.252 314.872 317.009 314.481 318.694 315.242Z" fill="#DBDFF0"/>
<path d="M354.944 368.432L325.575 410.285L298.759 391.404L327.078 348.813L354.944 368.432Z" fill="#616161"/>
<path d="M351.742 369.674L325.659 406.849L301.842 390.078L326.994 352.252L351.742 369.674Z" fill="#E0CEC7"/>
<path d="M343.722 365.41L345.554 362.801L335.925 356.021L333.717 358.366L343.722 365.41Z" fill="#616161"/>
<path d="M340.948 396.615C340.948 396.615 339.792 396.517 339.306 396.227C339.306 396.227 338.462 395.631 337.838 395.243C337.679 395.136 337.514 395.04 337.344 394.953C336.841 394.728 335.67 394.374 334.615 393.506C333.561 392.637 329.991 387.649 329.991 387.649L332.13 384.954L333.769 382.143C333.769 382.143 342.083 383.431 343.161 384.141C343.261 384.208 343.358 384.28 343.45 384.358C344.317 385.047 344.653 385.915 345.06 386.329C345.207 386.48 346.583 388.095 346.476 388.717C346.439 389.068 346.314 389.404 346.112 389.693C345.909 389.981 345.637 390.214 345.32 390.368C345.32 390.368 344.953 392.053 344.043 392.77C344.043 392.77 343.754 394.337 342.369 394.91C342.369 394.91 341.893 396.465 340.948 396.615Z" fill="#EEA886"/>
<path d="M330.295 309.406C330.295 309.406 336.442 313.117 342.523 313.954L339.292 319.125L329.043 312.055L330.295 309.406Z" fill="#A7AAB8"/>
<path d="M344.557 311.131C344.557 311.131 343.91 313.262 342.534 313.954L345.572 318.198L345.462 312.57L344.557 311.131Z" fill="#A7AAB8"/>
<path d="M342.523 313.954L344.927 317.315C344.927 317.315 343.407 319.243 340.127 317.784L342.523 313.954Z" fill="#434343"/>
<path d="M365.282 351.989C364.178 350.541 363.091 349.047 362.059 347.556C362.059 347.556 362.447 336.683 362.108 333.559C362.106 333.556 365.652 345.269 365.282 351.989Z" fill="#A7AAB8"/>
<path d="M315.287 344.794C315.287 344.794 312.92 360.213 313.087 361.203C313.255 362.193 302.377 358.094 315.287 344.794Z" fill="#A7AAB8"/>
<path d="M319.639 316.206C321.284 316.843 321.905 319.764 321.229 328.229C320.553 336.694 317.582 340.585 316.472 342.542C315.362 344.499 309.247 356.568 310.354 358.158C311.46 359.747 321.813 369.984 322.414 370.818C323.015 371.651 334.581 382.143 334.581 382.143L328.691 390.388C328.691 390.388 303.709 370.841 301.761 368.89C299.814 366.938 293.987 362.839 296.14 356.021C298.331 349.094 302.267 332.861 302.967 331.605C303.666 330.348 308.773 311.994 319.639 316.206Z" fill="#DBDFF0"/>
<path d="M358.013 339.262H352.297V348.008H358.013V339.262Z" fill="#C6CAD9"/>
<path d="M236.611 277.463H213.077V253.889H198.419V277.463H174.885V292.146H198.419V315.72H213.077V292.146H236.611V277.463Z" fill="url(#paint11_linear_113_27)"/>
<path d="M537.887 356.739C537.887 356.739 536.667 353.731 538.344 353.323L538.974 356.027L537.887 356.739Z" fill="#EEA886"/>
<path d="M542.494 545.87C542.494 545.87 536.006 548.909 536.049 549.923C536.092 550.936 537.037 552.34 537.783 552.308C538.529 552.276 548.944 552.508 549.921 551.77C550.898 551.031 554.733 543.73 557.169 543.241C559.606 542.752 562.949 538.948 560.123 534.779C557.297 530.61 546.884 545.259 542.494 545.87Z" fill="#3B3B40"/>
<path d="M555.297 532.903C555.297 532.903 550.644 536.455 549.08 539.561C547.517 542.668 541.312 546.344 541.526 546.903C541.739 547.462 547.488 547.772 549.277 545.485C551.066 543.198 557.346 536.921 559.192 535.957C561.039 534.993 559.507 534.924 559.507 534.924L555.297 532.903Z" fill="#EEA886"/>
<path d="M555.297 532.903C555.297 532.903 558.259 526.754 558.493 524.701C558.727 522.649 564.458 526.887 560.045 535.349L555.297 532.903Z" fill="#EEA886"/>
<path d="M559.802 541.591L558.294 551.269L557.285 551.312L557.181 543.235C557.181 543.235 559.325 541.157 559.802 541.591Z" fill="#3B3B40"/>
<path d="M561.386 408.14C561.386 408.14 554.617 440.966 552.482 449.052C550.346 457.138 548.326 469.152 548.089 473.909C547.852 478.665 549.395 483.422 549.514 485.92C549.632 488.418 553.074 533.253 553.074 533.253C553.074 533.253 560.759 534.284 561.71 533.569C562.66 532.854 567.915 496.86 566.134 482.709C564.354 468.559 567.796 464.511 572.544 457.853C577.293 451.194 585.261 425.979 585.012 423.006C584.764 420.033 581.093 386.378 581.093 386.378C581.093 386.378 566.464 367.407 561.386 408.14Z" fill="#353A3D"/>
<path d="M597.517 538.441C597.517 538.441 592.422 547.091 590.272 548.504C587.353 550.423 589.182 552.363 590.561 552.363C591.94 552.363 599.026 552.873 600.587 551.098C602.147 549.323 602.922 544.008 604.373 542.619C605.823 541.229 607.153 536.099 603.667 534.359C599.853 532.451 597.517 538.441 597.517 538.441Z" fill="#3B3B40"/>
<path d="M599.428 533.907C599.428 533.907 593.89 544.767 592.885 546.263C591.879 547.76 594.778 547.757 596.572 547.048C598.367 546.339 603.032 539.133 603.537 537.749C604.043 536.365 603.676 534.359 603.676 534.359L599.428 533.907Z" fill="#EEA886"/>
<path d="M605.633 540.088L604.286 550.473L603.572 550.504L603.794 543.032L605.633 540.088Z" fill="#3B3B40"/>
<path d="M599.428 533.908C599.428 533.908 600.061 529.461 599.17 525.761C598.28 522.061 605.24 524.733 605.24 524.733C605.24 524.733 605.529 530.523 603.691 534.359C601.852 538.195 599.428 533.908 599.428 533.908Z" fill="#EEA886"/>
<path d="M610.13 396.036C610.13 396.036 610.893 424.806 608.875 435.032C606.858 445.257 603.65 463.692 604.008 468.324C604.367 472.956 604.534 476.517 606.031 480.335C606.898 482.579 610.277 499.839 604.904 532.883L597.968 533.198C597.968 533.198 593.217 499.127 592.269 489.611C591.321 480.095 589.183 473.914 589.183 470.941C589.183 467.968 581.108 442.637 581.463 431.569C581.819 420.502 578.484 397.507 581.463 391.728C588.327 378.321 610.13 396.036 610.13 396.036Z" fill="#353A3D"/>
<path d="M588.714 329.248L597.211 395.298L562.744 394.649L564.733 336.547L573.88 330.244L574.036 338.255L577.619 330.334L583.677 338.718L588.714 329.248Z" fill="#EAD8CF"/>
<path d="M556.071 321.857C556.071 321.857 561.681 322.662 563.73 324.446C565.779 326.229 572.903 328.102 572.903 328.102L561.415 334.257L556.071 321.857Z" fill="#EDDCC5"/>
<path d="M595.994 299.343C595.994 299.343 605.312 299.551 602.552 308.21C599.792 316.869 589.642 320.17 585.633 315.176C581.625 310.182 595.994 299.343 595.994 299.343Z" fill="#3D3E52"/>
<path d="M563.224 398.931C563.224 398.931 592.937 400.269 596.408 399.912C599.879 399.556 591.659 395.304 591.659 395.304L565.34 394.704L563.224 398.931Z" fill="#4B5257"/>
<path d="M576.819 282.196C576.819 282.196 568.27 288.023 568.507 301.699C568.744 315.375 574.92 316.565 584.298 313.236C593.676 309.907 597.358 291.234 595.341 287.609C593.324 283.985 588.573 278.392 576.819 282.196Z" fill="#EEA886"/>
<path d="M587.862 319.779C587.862 319.779 592.61 323.583 594.864 324.179C597.119 324.776 605.557 328.339 606.135 330.259C606.713 332.178 617.407 362.972 617.297 364.747C617.187 366.522 580.966 393.407 580.134 393.526C579.301 393.645 574.674 386.986 574.674 386.986L587.021 376.402C587.021 376.402 584.053 360.109 583.46 353.566C582.868 347.024 583.102 330.733 584.527 327.045C585.51 324.566 586.623 322.14 587.862 319.779Z" fill="#FFA455"/>
<path d="M607.488 373.2C607.488 373.2 607.086 382.809 608.034 386.019C608.982 389.23 613.852 416.229 614.329 417.178C614.806 418.128 599.725 416.229 595.096 405.407C590.466 394.586 588.09 379.123 588.327 377.815C588.564 376.506 607.488 373.2 607.488 373.2Z" fill="#FFA455"/>
<path d="M574.683 321.084C574.683 321.084 565.66 336.309 565.66 347.249C565.66 358.19 568.735 365.922 568.504 369.967C568.273 374.011 565.184 401.719 561.978 408.496C558.773 415.273 551.768 418.727 551.768 418.727C551.768 418.727 558.06 403.384 559.366 390.646C560.672 377.908 556.993 344.74 556.993 344.74C556.993 344.74 557.23 333.206 559.594 331.538C561.958 329.871 567.076 327.378 569.212 325.714C571.348 324.049 574.683 321.084 574.683 321.084Z" fill="#FFA455"/>
<path d="M588.318 375.644C588.318 375.644 602.286 362.799 602.821 362.353C603.355 361.907 601.751 357.538 601.751 357.538L588.318 375.644Z" fill="#C97730"/>
<path d="M574.683 321.084L573.88 330.244L567.045 337.722L571.016 324.263L574.683 321.084Z" fill="#D5BCB1"/>
<path d="M577.619 330.319L574.036 338.243L573.88 330.233L574.683 321.076C574.683 321.076 575.374 320.476 575.709 318.105C575.856 317.006 575.915 315.897 575.885 314.788C575.77 308.262 575.83 313.149 575.75 312.214C575.119 304.812 587.862 309.898 587.862 309.898C587.862 309.898 586.792 315.636 587.862 319.767C588.931 323.898 577.619 330.319 577.619 330.319Z" fill="#EEA886"/>
<path d="M566.314 364.315C566.314 364.315 574.03 373.116 574.504 374.245C574.978 375.374 560.08 367.407 560.08 367.407L566.314 364.315Z" fill="#4D6EA3"/>
<path d="M574.036 338.255C573.874 338.492 570.071 343.668 572.12 354.035C573.813 362.578 574.409 379.268 574.663 386.396C574.718 387.884 574.755 388.961 574.787 389.473L575.469 389.432C575.437 388.926 575.4 387.855 575.348 386.372C575.091 379.228 574.481 362.5 572.79 353.902C570.802 343.854 573.984 338.33 574.036 338.269V338.255Z" fill="#BDAEA7"/>
<path d="M543.41 367.954C543.41 367.954 544.005 383.831 551.768 386.15C559.531 388.468 570.498 390.782 572.903 390.706C575.307 390.631 575.663 391.777 575.663 391.777C575.663 391.777 575.663 399.536 575.128 401.945C574.593 404.353 571.082 410.051 571.854 412.656C572.625 415.262 581.056 418.629 582.608 416.672C584.16 414.715 580.024 411.229 579.313 410.25C578.602 409.272 584.489 393.983 585.284 389.942C586.079 385.901 587.385 378.675 579.966 375.641C572.547 372.607 561.204 367.404 561.204 367.404L543.41 367.954Z" fill="#5B83C2"/>
<path d="M542.034 297.861C542.034 297.861 535.098 302.177 535.326 309.551C535.555 316.924 540.193 324 548.444 322.512C556.695 321.024 555.626 309.195 556.071 307.646C556.516 306.097 555.805 296.552 542.034 297.861Z" fill="#EEA886"/>
<path d="M556.071 321.858C552.245 333.99 543.445 324.382 543.872 324.356C543.965 324.356 544.034 324.229 544.086 324.04C544.189 323.537 544.237 323.023 544.231 322.509C544.231 322.101 544.231 321.788 544.231 321.788C544.231 321.788 554.143 314.901 554.198 317.932C554.253 320.963 556.071 321.858 556.071 321.858Z" fill="#EEA886"/>
<path d="M554.97 315.894C554.97 315.894 553.623 311.178 551.768 310.225C549.912 309.273 549.216 311.569 548.147 309.669C547.077 307.77 542.216 302.973 535.743 306.112C535.743 306.112 535.029 297.716 544.942 296.764C554.854 295.811 556.756 301.818 557.112 305.208C557.467 308.598 556.005 314.461 554.97 315.894Z" fill="#B08A63"/>
<path d="M590.359 308.205C590.359 308.205 592.489 301.285 590.937 298.967C589.385 296.648 588.336 299.062 585.122 296.651C581.908 294.239 570.808 295.42 569.891 292.279C568.975 289.138 575.267 275.523 588.564 280.41C601.861 285.296 598.023 300.376 590.359 308.205Z" fill="#3D3E52"/>
<path d="M587.931 296.289C588.633 294.96 591.749 293.869 592.104 296.824C592.46 299.78 589.523 302.415 587.682 302.059C585.842 301.702 587.428 297.247 587.931 296.289Z" fill="#EEA886"/>
<path d="M550.225 308.205C550.404 307.527 552.421 306.204 553.253 308.205C554.086 310.205 552.115 313.178 550.635 311.87C549.155 310.561 550.225 308.205 550.225 308.205Z" fill="#EEA886"/>
<path d="M556.071 321.857C556.268 321.446 558.591 322.318 560.672 325.427C563.001 328.901 563.64 333.186 563.909 334.882C564.178 336.578 560.851 346.462 563.224 352.096C565.597 357.729 566.935 359.678 566.313 364.315C565.692 368.953 544.317 369.312 542.982 367.706C541.647 366.099 537.283 353.879 537.552 344.603C537.821 335.328 534.257 333.365 534.881 332.563C535.506 331.761 542.973 323.644 543.872 324.356C544.771 325.068 551.976 330.511 556.071 321.857Z" fill="#E55353"/>
<path d="M534.168 347.278C527.925 349.858 519.836 352.026 516.914 353.604C516.58 353.767 516.273 353.981 516.004 354.238C514.489 355.842 511.905 359.857 508.778 360.028C505.651 360.199 504.86 356.105 507.888 352.536C510.917 348.966 505.839 350.037 508.513 348.613C511.007 347.278 512.957 349.369 515.093 348.416C515.25 348.344 515.402 348.261 515.547 348.167C517.859 346.65 525.518 341.477 528.902 339.87C532.286 338.263 532.107 333.895 534.87 332.557C534.87 332.557 540.65 331.576 541.011 336.839C541.372 342.102 541.306 344.337 534.168 347.278Z" fill="#EDDCC5"/>
<path d="M516.914 353.604C516.58 353.767 516.273 353.981 516.004 354.238C514.489 355.842 511.905 359.857 508.778 360.028C505.651 360.199 504.86 356.105 507.888 352.536C510.917 348.966 505.721 349.979 508.513 348.613C511.05 347.368 512.957 349.369 515.093 348.416C515.163 348.5 517.03 351.007 516.914 353.604Z" fill="#EEA886"/>
<path d="M575.085 387.542C575.085 387.542 574.267 388.579 572.426 388.28C570.585 387.982 567.738 384.772 566.016 384.653C564.293 384.534 567.261 386.679 567.322 387.565C567.383 388.451 567.975 389.111 566.55 389.111C565.126 389.111 557.646 385.724 556.103 385.961C554.56 386.199 555.568 386.879 555.568 386.879C555.568 386.879 553.788 386.378 553.67 387.565C553.551 388.752 560.672 393.098 561.444 393.274C562.215 393.451 568.27 395.011 572.715 393.81C577.16 392.608 579.957 391.908 579.957 391.908L575.085 387.542Z" fill="#EEA886"/>
<path d="M574.683 386.972C574.683 386.972 579.252 393.691 580.142 393.512C581.033 393.332 600.15 378.866 600.15 378.866L588.318 375.644L587.029 376.388L574.683 386.972Z" fill="#FFA455"/>
<path d="M586.495 312.191C586.495 312.191 583.686 316.823 575.712 318.117C575.858 317 575.915 315.873 575.885 314.747C575.885 314.747 581.391 315.129 586.495 312.191Z" fill="#A77860"/>
<path d="M553.184 319.608C553.184 319.608 552.401 324.793 544.086 324.037C544.189 323.534 544.237 323.02 544.231 322.506C544.231 322.506 550.161 323.788 553.184 319.608Z" fill="#A77860"/>
<path d="M538.575 354.516C538.575 354.516 536.263 357.961 537.586 362.043C538.91 366.125 543.118 368.325 543.077 367.734C543.037 367.144 539.335 358.111 538.575 354.516Z" fill="#EEA886"/>
<path d="M587.862 319.779L577.619 330.334L583.677 338.718L592.13 322.824L587.862 319.779Z" fill="#D5BCB1"/>
<defs>
<linearGradient id="paint0_linear_113_27" x1="173.466" y1="27.8239" x2="498.673" y2="444.294" gradientUnits="userSpaceOnUse">
<stop offset="0.16" stop-color="#90C2E8"/>
<stop offset="0.58" stop-color="#47AFFF"/>
<stop offset="1" stop-color="#6783F5"/>
</linearGradient>
<linearGradient id="paint1_linear_113_27" x1="263.965" y1="417.074" x2="263.965" y2="188.427" gradientUnits="userSpaceOnUse">
<stop stop-color="#F5F5F5"/>
<stop offset="1" stop-color="#F5F5F5"/>
</linearGradient>
<linearGradient id="paint2_linear_113_27" x1="306.972" y1="285.21" x2="312.339" y2="285.21" gradientUnits="userSpaceOnUse">
<stop stop-color="#D5E4FF"/>
<stop offset="1" stop-color="#EDFFFE"/>
</linearGradient>
<linearGradient id="paint3_linear_113_27" x1="321.263" y1="285.21" x2="326.627" y2="285.21" gradientUnits="userSpaceOnUse">
<stop stop-color="#D5E4FF"/>
<stop offset="1" stop-color="#EDFFFE"/>
</linearGradient>
<linearGradient id="paint4_linear_113_27" x1="335.552" y1="285.21" x2="340.919" y2="285.21" gradientUnits="userSpaceOnUse">
<stop stop-color="#D5E4FF"/>
<stop offset="1" stop-color="#EDFFFE"/>
</linearGradient>
<linearGradient id="paint5_linear_113_27" x1="349.843" y1="285.21" x2="355.207" y2="285.21" gradientUnits="userSpaceOnUse">
<stop stop-color="#D5E4FF"/>
<stop offset="1" stop-color="#EDFFFE"/>
</linearGradient>
<linearGradient id="paint6_linear_113_27" x1="386.946" y1="302.059" x2="516.347" y2="302.059" gradientUnits="userSpaceOnUse">
<stop stop-color="#F5F5F5"/>
<stop offset="1" stop-color="#F5F5F5"/>
</linearGradient>
<linearGradient id="paint7_linear_113_27" x1="229.227" y1="158.368" x2="561.169" y2="158.368" gradientUnits="userSpaceOnUse">
<stop stop-color="#F5F5F5"/>
<stop offset="1" stop-color="#F5F5F5"/>
</linearGradient>
<linearGradient id="paint8_linear_113_27" x1="290.704" y1="114.932" x2="290.704" y2="215.035" gradientUnits="userSpaceOnUse">
<stop stop-color="#40D5E6"/>
<stop offset="1" stop-color="#5577FF"/>
</linearGradient>
<linearGradient id="paint9_linear_113_27" x1="290.62" y1="114.932" x2="290.62" y2="215.035" gradientUnits="userSpaceOnUse">
<stop stop-color="#40D5E6"/>
<stop offset="1" stop-color="#5577FF"/>
</linearGradient>
<linearGradient id="paint10_linear_113_27" x1="290.62" y1="121.405" x2="290.62" y2="209.068" gradientUnits="userSpaceOnUse">
<stop stop-color="#D3DAE0"/>
<stop offset="1" stop-color="white"/>
</linearGradient>
<linearGradient id="paint11_linear_113_27" x1="187.22" y1="260.993" x2="227.666" y2="312.793" gradientUnits="userSpaceOnUse">
<stop stop-color="#40D5E6"/>
<stop offset="1" stop-color="#5577FF"/>
</linearGradient>
</defs>
</svg>
