<svg xmlns="http://www.w3.org/2000/svg" viewBox="0 0 150.64 115.31"><defs><style>.cls-1{fill:#e00000;stroke:#e00000;stroke-miterlimit:10;stroke-width:3px;}</style></defs><g id="Layer_2" data-name="Layer 2"><g id="Layer_1-2" data-name="Layer 1"><path class="cls-1" d="M147.81,58.28h-19.9s0,0,0,0L125.37,47a1.38,1.38,0,0,0-1.4-1,1.35,1.35,0,0,0-1.26,1.21l-4,39.35s0,0-.06,0l-4-64.26A1.37,1.37,0,0,0,113.37,21h0A1.34,1.34,0,0,0,112,22.22l-4.28,50.34a0,0,0,0,1-.06,0l-2.82-23.8a1.37,1.37,0,0,0-1.35-1.2,1.35,1.35,0,0,0-1.33,1.23l-1.32,14.26-1.51-3.91a1.37,1.37,0,0,0-1.26-.86H12.6a1.37,1.37,0,0,0-.63.16c-6-10-9.51-20.66-6.9-30.56C9.64,10.56,25.54,3.91,39.27,5,51.55,6,64.59,13.49,66,28a1.35,1.35,0,0,0,2.68,0C69.86,16.61,78.94,7.52,91.86,4.89c10.29-2.09,25,.4,32.58,14.28,5.24,9.6,4.65,15.44,4.65,15.49a1.35,1.35,0,1,0,2.68.34c0-.27.75-6.67-5-17.12C120,5.39,106.06-.75,91.32,2.25c-11.69,2.38-20.51,9.67-23.89,19.3a0,0,0,0,1-.05,0C63.21,9.52,51,3.23,39.48,2.31c-14.85-1.19-32,6-37,24.89-9.81,37.2,58.32,83.72,64.36,86.49a1.39,1.39,0,0,0,1.15,0c2.78-1.34,20.85-13.91,33.36-27.7a1.35,1.35,0,0,0-2-1.82c-11.52,12.7-28.07,24.49-31.95,26.77h0c-4.52-2.45-21.73-14.32-36.86-29.53A132.44,132.44,0,0,1,13.59,61s0,0,0,0H97.14a0,0,0,0,1,0,0l3.24,8.39A1.35,1.35,0,0,0,103,69l.67-7.25,2.9,24.53a1.35,1.35,0,0,0,2.69,0l3.85-45.17s0,0,.06,0L117,103.52a1.34,1.34,0,0,0,1.32,1.26h0a1.35,1.35,0,0,0,1.34-1.21l4.85-47.83.93,4.16A1.38,1.38,0,0,0,126.83,61h21a1.31,1.31,0,0,0,1.32-1.22v0A1.35,1.35,0,0,0,147.81,58.28Z"/></g></g></svg>